General
Complete name                    : To Kill A Mockingbird[1962]BRrip[Ac3-5.1]-=[CaLvIn]=-
Imdb Link                        : http://www.imdb.com/title/tt0056592
Format                           : AVI
Format/Info                      : Audio Video Interleave
File size                        : 798 MiB
Duration                         : 2h 9mn
Overall bit rate                 : 864 Kbps

Video
ID                               : 0
Format                           : MPEG-4 Visual
Format profile                   : Advanced Simple@L5
Format settings, BVOP            : 2
Format settings, QPel            : No
Format settings, GMC             : No warppoints
Format settings, Matrix          : Default (H.263)
Codec ID                         : XVID
Codec ID/Hint                    : XviD
Duration                         : 2h 9mn
Bit rate                         : 726 Kbps
Width                            : 720 pixels
Height                           : 400 pixels
Display aspect ratio             : 16:9
Frame rate                       : 23.976 fps
Color space                      : YUV
Chroma subsampling               : 4:2:0
Bit depth                        : 8 bits
Scan type                        : Progressive
Compression mode                 : Lossy
Bits/(Pixel*Frame)               : 0.105
Stream size                      : 671 MiB (84%)
Writing library                  : XviD 1.2.1 (UTC 2008-12-04)

Audio
ID                               : 1
Format                           : AC-3
Format/Info                      : Audio Coding 3
Mode extension                   : CM (complete main)
Codec ID                         : 2000
Duration                         : 2h 9mn
Bit rate mode                    : Constant
Bit rate                         : 128 Kbps
Channel(s)                       : 6 channels
Channel positions                : Front: L C R, Side: L R, LFE
Sampling rate                    : 48.0 KHz
Bit depth                        : 16 bits
Compression mode                 : Lossy
Stream size                      : 118 MiB (15%)
Alignment                        : Split accross interleaves
Interleave, duration             : 42 ms (1.00 video frame)
Interleave, preload duration     : 500 ms

Screens

 
http://img860.imageshack.us/img860/6845/screenkd.png 
http://img843.imageshack.us/img843/5161/23829112.png 
http://img337.imageshack.us/img337/5914/98805227.png 
http://img140.imageshack.us/img140/5817/49584374.png 
http://img3.imageshack.us/img3/227/40441178.png 
http://img268.imageshack.us/img268/9436/59591120.png 
http://img444.imageshack.us/img444/294/92487808.png 
http://img137.imageshack.us/img137/2978/69061419.png 
http://img204.imageshack.us/img204/2117/37479397.png 
http://img444.imageshack.us/img444/2500/26850484.png 
http://img26.imageshack.us/img26/3866/72805724.png
